# xmcd
#
# Track frame offsets:
#	150
#	19536
#	39319
#	56388
#	78445
#	98942
#	120839
#	138877
#	157016
#	175144
#	195547
#	212003
#
# Disc length: 3058 seconds
#
# Revision: 0
# Processed by: cddbd v1.5.2PL0 Copyright (c) Steve Scherf et al.
# Submitted via: EasyCDDAExtractor 11.9.9.666
#
DISCID=8e0bf00c
DTITLE=Harri Mölsä - Maalaiselämää
DYEAR=2004
DGENRE=Pop
TTITLE0=Ikuinen Ikävä
TTITLE1=Kun saapuu yö
TTITLE2=Kosketukses kuin tuuli
TTITLE3=Tapio Rautavaara
TTITLE4=Teinkö väärin
TTITLE5=Elämä meni näin
TTITLE6=Neito
TTITLE7=Yksinhuoltaja
TTITLE8=Saanhan vierelles nukahtaa
TTITLE9=Maalaiselämää
TTITLE10=Ikävä
TTITLE11=Pikkuenkelit
EXTD=
EXTT0=
EXTT1=
EXTT2=
EXTT3=
EXTT4=
EXTT5=
EXTT6=
EXTT7=
EXTT8=
EXTT9=
EXTT10=
EXTT11=
PLAYORDER=
